<?xml version="1.0" standalone="no"?><!DOCTYPE svg PUBLIC "-//W3C//DTD SVG 1.1//EN" "http://www.w3.org/Graphics/SVG/1.1/DTD/svg11.dtd"><svg t="1548408392902" class="icon" style="" viewBox="0 0 1024 1024" version="1.1" xmlns="http://www.w3.org/2000/svg" p-id="9396" xmlns:xlink="http://www.w3.org/1999/xlink" width="200" height="200"><defs><style type="text/css"></style></defs><path d="M 441.108 681.354 c 0 -11.8154 3.93846 -43.3231 3.93846 -55.1385 c -19.6923 -15.7538 -35.4462 -39.3846 -39.3846 -47.2615 c -3.93846 -7.87692 -11.8154 -27.5692 -19.6923 -55.1385 c -11.8154 0 -23.6308 -23.6308 -31.5077 -47.2615 c -7.87692 -23.6308 -3.93846 -43.3231 7.87692 -51.2 c -11.8154 -35.4462 -7.87692 -70.8923 0 -110.277 c 3.93846 -15.7538 7.87692 -39.3846 31.5077 -59.0769 c 3.93846 -23.6308 15.7538 -43.3231 47.2615 -59.0769 c 74.8308 -35.4462 169.354 39.3846 200.862 -7.87692 c 39.3846 43.3231 15.7538 82.7077 27.5692 102.4 c 19.6923 43.3231 11.8154 98.4615 3.93846 133.908 c 11.8154 3.93846 19.6923 27.5692 7.87692 51.2 c -7.87692 23.6308 -19.6923 43.3231 -31.5077 47.2615 c -7.87692 27.5692 -15.7538 47.2615 -19.6923 55.1385 c -3.93846 7.87692 -19.6923 27.5692 -35.4462 43.3231 c 0 7.87692 0 39.3846 3.93846 59.0769 c 7.87692 66.9538 232.369 98.4615 267.815 137.846 l 3.93846 3.93846 c 74.8308 -82.7077 118.154 -192.985 118.154 -315.077 c 0 -259.938 -212.677 -472.615 -472.615 -472.615 s -472.615 212.677 -472.615 472.615 c 0 122.092 47.2615 236.308 126.031 319.015 c 3.93846 -3.93846 3.93846 -7.87692 7.87692 -11.8154 c 27.5692 -35.4462 252.062 -63.0154 263.877 -133.908" fill="#e6e6e6" p-id="9397"></path><path d="M 512 1004.31 c -271.754 0 -492.308 -220.554 -492.308 -492.308 s 220.554 -492.308 492.308 -492.308 s 492.308 220.554 492.308 492.308 s -220.554 492.308 -492.308 492.308 Z m 0 -945.231 c -248.123 0 -452.923 204.8 -452.923 452.923 s 204.8 452.923 452.923 452.923 s 452.923 -204.8 452.923 -452.923 s -204.8 -452.923 -452.923 -452.923 Z" fill="#e6e6e6" p-id="9398"></path></svg>